<svg width="153" height="118" viewBox="0 0 153 118" fill="none" xmlns="http://www.w3.org/2000/svg">
<g clip-path="url(#clip0_367_45)">
<g style="mix-blend-mode:multiply">
<path d="M54.42 10.6002C37.81 14.9102 21.7699 23.9101 12.4199 38.3301C6.64995 47.2601 3.75996 57.7601 2.25996 68.3301C1.49996 73.6201 1.14995 79.3302 3.68995 84.0102C5.94995 88.1802 10.1299 90.8902 14.1399 93.4202C28.9 102.75 44.07 112.25 61.14 115.87C73.3 118.45 85.92 117.93 98.25 116.35C109.49 114.92 120.93 112.5 130.43 106.35C148.63 94.4802 156.2 69.9301 150.83 48.9601C146.54 32.2201 131.49 9.73015 113.66 4.96015C97.63 0.690149 70.02 6.55016 54.42 10.6002Z" fill="#EEFBFF"/>
</g>
<path d="M74.26 43.0801C74.3007 43.1853 74.3581 43.2832 74.43 43.3701C78.7487 48.1484 83.7777 52.233 89.34 55.4801C89.1457 55.9586 88.9185 56.4231 88.66 56.8701C87.96 58.0501 87.21 59.2401 86.46 60.4301C84.8821 62.8172 83.4399 65.291 82.14 67.8401C81.6379 68.6148 81.2474 69.4564 80.98 70.3401C80.33 72.8601 81.52 75.7501 83.98 77.7201C85.3984 78.757 86.9402 79.6136 88.57 80.2701C89.13 80.5201 89.69 80.7701 90.24 81.0501C90.79 81.3301 91.33 81.6101 91.87 81.9001C93.1076 82.603 94.3982 83.2081 95.73 83.7101C96.8041 84.0863 97.9321 84.2856 99.07 84.3001C100.317 84.3181 101.547 84.0114 102.64 83.4101C103.718 82.7266 104.621 81.7996 105.276 80.7036C105.93 79.6077 106.319 78.3735 106.41 77.1001C106.57 75.2079 106.493 73.3031 106.18 71.4301L106.06 70.4801C105.738 67.8731 105.601 65.2465 105.65 62.6201C106.98 62.9401 108.29 63.3501 109.65 63.8001C112.184 64.7427 114.829 65.3512 117.52 65.6101C118.597 65.6535 119.675 65.6368 120.75 65.5601H122.13C123.562 65.5739 124.99 65.7077 126.4 65.9601L127.65 66.1302H127.83C128.025 66.1681 128.222 66.1914 128.42 66.2001C129.207 66.177 129.978 65.9717 130.672 65.6004C131.366 65.229 131.964 64.7019 132.42 64.0601C133.299 62.7326 133.816 61.1987 133.92 59.6101C134.74 52.0401 131.37 44.7301 128.15 38.4701C126.29 34.8601 124.36 31.4101 121.25 28.9701C113.25 22.7101 103.25 24.8801 94.47 26.8001C91.1802 27.6027 87.8389 28.1774 84.47 28.5201L82.57 28.6501C79.19 28.8501 75.7 29.0501 72.52 30.6001C71.2883 31.1088 70.2609 32.013 69.6 33.1701C69.2155 34.0752 69.0618 35.0615 69.1526 36.0407C69.2433 37.0198 69.5757 37.9611 70.12 38.7801C71.1703 40.4979 72.5832 41.9655 74.26 43.0801ZM106.03 57.0801C107.86 57.2601 109.7 57.3802 111.54 57.3802C114.772 57.3815 117.998 57.097 121.18 56.5301C121.18 56.5301 121.25 56.4801 121.29 56.4601C121.846 56.9869 122.306 57.6061 122.65 58.2901C122.684 58.3718 122.714 58.4553 122.74 58.5401C119.674 59.0116 116.566 59.1491 113.47 58.9501C112.33 58.8401 111.16 58.6402 110.04 58.4402C108.72 58.2102 107.37 57.9802 106.04 57.8802C106.02 57.6402 106.03 57.3701 106.03 57.1101V57.0801ZM106.03 56.3802C106.009 56.1017 105.972 55.8245 105.92 55.5501C109.098 55.1397 112.233 54.4504 115.29 53.4901C115.661 53.3794 116.025 53.2458 116.38 53.0901C117.636 53.699 118.831 54.4256 119.95 55.2602C120.23 55.4702 120.48 55.6801 120.72 55.8901C115.856 56.7312 110.901 56.9062 105.99 56.4101L106.03 56.3802ZM115.08 52.8101C112.027 53.7596 108.894 54.429 105.72 54.8101C105.593 54.4618 105.433 54.1268 105.24 53.8101C107.138 53.0995 108.933 52.1412 110.58 50.9601C112.264 51.3862 113.91 51.9515 115.5 52.6501L115.08 52.8101ZM104.82 53.2401C104.544 52.8797 104.236 52.545 103.9 52.2401L105.77 49.9801C107.08 50.1801 108.39 50.4301 109.67 50.7401C108.148 51.7773 106.506 52.6268 104.78 53.2701L104.82 53.2401ZM103.35 51.8101L103.05 51.5702C103.364 50.934 103.735 50.3281 104.16 49.7602L104.95 49.8701L103.35 51.8101ZM102.45 51.1701C101.875 50.8342 101.277 50.5402 100.66 50.2901C99.8431 49.9581 99.0002 49.6939 98.14 49.5001L98.24 49.1601L99.75 49.2901C100.94 49.3901 102.13 49.5101 103.33 49.6601C102.985 50.1496 102.677 50.6643 102.41 51.2001L102.45 51.1701ZM97.45 49.3701C96.8082 49.2726 96.1576 49.2458 95.51 49.2901H95.37C95.2 49.2901 95.06 49.3602 94.9 49.3802C94.9 49.2002 94.76 49.0201 94.7 48.8401L97.47 49.0801H97.53L97.45 49.3701ZM93.92 48.7701C94.0281 49.0178 94.1216 49.2715 94.2 49.5301C93.2263 49.815 92.355 50.3738 91.69 51.1401C90.4219 50.3183 89.3026 49.2869 88.38 48.0901C90.16 48.4101 92.01 48.6301 93.86 48.8001L93.92 48.7701ZM87.38 47.9401C88.4165 49.4304 89.7304 50.707 91.25 51.7001C91.0749 51.9436 90.9146 52.1974 90.77 52.4601C88.79 51.1145 87.0321 49.468 85.56 47.5801C86.1 47.7301 86.71 47.8601 87.32 47.9701L87.38 47.9401ZM84.53 47.3501C85.5923 48.8196 86.8204 50.1618 88.19 51.3501C86.0011 49.9091 83.9068 48.3292 81.92 46.6201C82.74 46.9201 83.59 47.1735 84.47 47.3802L84.53 47.3501ZM103.63 76.7401C103.58 77.5703 103.341 78.378 102.932 79.1023C102.523 79.8265 101.955 80.4482 101.27 80.9201C100.552 81.249 99.774 81.4267 98.9843 81.4422C98.1947 81.4576 97.4104 81.3106 96.68 81.0102C95.4916 80.5597 94.3412 80.0146 93.24 79.3802C92.67 79.0802 92.11 78.7701 91.53 78.4801C90.95 78.1901 90.35 77.9301 89.76 77.6601C88.3431 77.0985 86.9999 76.3664 85.76 75.4801C84.44 74.4801 83.29 72.6601 83.71 71.0301C83.932 70.3686 84.2414 69.7397 84.63 69.1601C85.9022 66.6729 87.3076 64.2561 88.84 61.9201C89.61 60.7101 90.37 59.5101 91.09 58.2901C91.5491 57.4845 91.9469 56.6455 92.28 55.7801C93.21 53.5201 93.78 52.3301 95.62 52.1501H95.68C97.0083 52.1226 98.3253 52.3997 99.53 52.9601C100.166 53.1998 100.77 53.5154 101.33 53.9001C103.33 55.3801 103.33 56.3902 103.04 59.0702C102.665 62.976 102.742 66.912 103.27 70.8001L103.39 71.8001C103.669 73.4311 103.75 75.0898 103.63 76.7401ZM122.1 62.6501L120.66 62.7101C119.681 62.7601 118.699 62.7601 117.72 62.7101C115.274 62.4634 112.87 61.8987 110.57 61.0301C109.04 60.5401 107.46 60.0301 105.84 59.6801C105.84 59.5601 105.84 59.4401 105.84 59.3301C105.84 59.2201 105.9 58.8202 105.92 58.5702C107.25 58.6702 108.59 58.8901 109.92 59.1201C111.06 59.3201 112.23 59.5202 113.41 59.6302C114.267 59.715 115.128 59.7551 115.99 59.7501C118.332 59.7081 120.67 59.5243 122.99 59.2001C123.1 59.5701 123.2 59.9601 123.3 60.3601C123.46 60.9601 123.61 61.5601 123.81 62.1401C123.88 62.3301 123.96 62.5102 124.03 62.6902C123.388 62.6338 122.744 62.6204 122.1 62.6501ZM72.2 34.4001C72.5896 33.8007 73.1608 33.3417 73.83 33.0901C76.5 31.7901 79.56 31.6101 82.83 31.4101C83.4967 31.4101 84.1467 31.3701 84.78 31.2901C88.2698 30.9184 91.7309 30.3137 95.14 29.4801C99.4302 28.3787 103.824 27.7318 108.25 27.5501C112.321 27.3931 116.321 28.6511 119.57 31.1101C122.23 33.2001 123.99 36.3601 125.7 39.6801C128.7 45.5701 131.91 52.4301 131.17 59.2101C131.115 60.3071 130.77 61.37 130.17 62.2901C129.959 62.6226 129.661 62.8914 129.309 63.0676C128.956 63.2438 128.563 63.3207 128.17 63.2901C127.749 63.1139 127.376 62.841 127.081 62.4935C126.785 62.146 126.576 61.7337 126.47 61.2901C126.298 60.7912 126.151 60.2839 126.03 59.7701C125.838 58.8773 125.557 58.0063 125.19 57.1701C124.344 55.5265 123.103 54.1179 121.58 53.0702C115.47 48.4802 107.58 47.2201 99.92 46.5401L97.61 46.3501C91.18 45.8101 84.53 45.2501 78.79 42.5301C76.2568 41.4813 74.1066 39.6802 72.63 37.3701C72.3241 36.9465 72.1253 36.455 72.0504 35.9379C71.9755 35.4207 72.0269 34.8931 72.2 34.4001Z" fill="#0F1428"/>
<path d="M16.44 36.68L27.72 37.95C28.1411 42.2436 27.8369 46.5774 26.82 50.77C26.4578 52.1441 26.273 53.559 26.27 54.98C25.458 55.4725 24.7373 56.1018 24.14 56.84C22.56 58.62 22.02 62.3501 22.19 65.0601C22.31 66.94 22.8 69.47 24.45 70.9C25.79 72.07 27.85 72.49 30.28 72.49C33.4054 72.3786 36.5145 71.987 39.57 71.3201L41.31 71.0001C41.4858 70.9717 41.6595 70.9316 41.83 70.8801C41.9888 70.9448 42.1585 70.9788 42.33 70.98H42.55C43.6777 70.7557 44.7402 70.2794 45.6579 69.5868C46.5757 68.8941 47.325 68.003 47.85 66.98C48.7841 65.1152 49.2897 63.0653 49.33 60.98C49.4638 58.6371 49.3127 56.2866 48.88 53.98C48.805 53.468 48.6391 52.9736 48.39 52.52C47.9761 51.889 47.3921 51.388 46.7055 51.0748C46.019 50.7616 45.2578 50.649 44.51 50.75C44.1015 50.7742 43.6962 50.8378 43.3 50.9401C42.1108 47.2485 41.3 43.4456 40.88 39.59C40.88 39.47 40.88 39.35 40.83 39.23C42.39 39.33 43.93 39.41 45.45 39.41C51.38 39.41 56.94 38.41 61.78 35.35C64.406 33.7721 66.4805 31.4217 67.72 28.62C69.49 24.25 68.4 18.62 64.95 14.28C61.84 10.36 57.36 7.81001 53.4 5.83001C50.0027 4.13143 46.5216 2.60619 42.97 1.26006C34.15 -2.07994 29.63 1.45003 23.38 6.35003L2.84998 22.48C1.71362 23.2334 0.81527 24.2948 0.259982 25.54C-0.600018 27.91 0.779973 30.34 2.35997 31.83C6.30997 35.55 12.17 36.2 16.44 36.68ZM36.23 38.89C36.839 43.2709 37.7072 47.6119 38.83 51.89C38.9395 52.3445 39.0764 52.792 39.24 53.23L38.95 53.49C38.4671 53.963 38.0161 54.4674 37.6 55C36.4714 49.6662 35.7196 44.2595 35.35 38.8201L36.23 38.89ZM34.64 38.72C35.0254 44.4369 35.8242 50.1184 37.03 55.72C36.77 56.09 36.51 56.48 36.26 56.89L35.35 56.55L33.55 55.91L32.28 38.48L34.28 38.7L34.64 38.72ZM31.56 38.37L32.82 55.65L31.55 55.2C31.8703 49.5852 31.8001 43.9551 31.34 38.35L31.56 38.37ZM30.63 38.27C31.0834 43.8185 31.1569 49.3915 30.85 54.95C30.2827 54.7387 29.6968 54.5814 29.1 54.48C29.162 53.4194 29.3295 52.3675 29.6 51.34C30.6204 47.0633 30.9579 42.6521 30.6 38.27H30.63ZM39.03 68.54C35.57 69.19 28.37 70.5401 26.3 68.7601C25.61 68.1701 25.13 66.7601 25.01 64.8801C24.83 62.1401 25.52 59.55 26.25 58.73C26.7043 58.0919 27.3277 57.5932 28.05 57.29C28.7386 57.2526 29.4258 57.3867 30.05 57.68L34.37 59.22C36.68 60.04 39 61 39.8 62.87C40.0814 63.6478 40.2432 64.4637 40.28 65.29L40.58 68.29L39.03 68.54ZM44.68 53.6301C44.9012 53.588 45.1292 53.5978 45.346 53.6585C45.5629 53.7192 45.7627 53.8292 45.93 53.98C46.0058 54.1657 46.0563 54.3608 46.08 54.56C46.4711 56.6222 46.6087 58.7245 46.49 60.8201C46.4665 62.4779 46.0773 64.1101 45.35 65.6C44.8962 66.4484 44.2271 67.1623 43.41 67.67L43.13 64.97C43.0618 63.8673 42.8257 62.7815 42.43 61.75C41.6862 60.1569 40.4242 58.8631 38.85 58.08C39.4273 57.1354 40.1229 56.2684 40.92 55.5C41.9151 54.4549 43.246 53.7929 44.68 53.6301ZM38.05 39.9401C38.486 44.0752 39.3506 48.1537 40.63 52.11C40.3324 52.2975 40.0453 52.5012 39.77 52.72C39.66 52.39 39.57 52.05 39.47 51.72C38.3793 47.5285 37.528 43.2783 36.92 38.99L37.86 39.08C37.9439 39.3617 38.0074 39.6492 38.05 39.9401ZM2.92998 26.48C3.31914 25.7466 3.89527 25.1291 4.59998 24.6901L25.12 8.61003C31.25 3.81003 34.63 1.16005 41.96 3.94005C45.4198 5.2504 48.8108 6.7356 52.12 8.39C55.81 10.24 59.95 12.5901 62.72 16.0701C65.49 19.5501 66.48 24.15 65.09 27.59C64.0513 29.8382 62.3617 31.7229 60.24 33C53.24 37.4901 44.13 36.91 34.63 35.85L16.76 33.85C11.76 33.29 7.31997 32.5901 4.30997 29.7601C3.41997 28.9401 2.53998 27.58 2.92998 26.48Z" fill="#0F1428"/>
</g>
<defs>
<clipPath id="clip0_367_45">
<rect width="152.52" height="117.63" fill="white"/>
</clipPath>
</defs>
</svg>
