<svg width="166" height="220" viewBox="0 0 166 220" fill="none" xmlns="http://www.w3.org/2000/svg">
<g clip-path="url(#clip0_367_36)">
<path d="M38.39 160.34C41.2488 162.222 44.3075 163.782 47.51 164.99C51.77 166.41 61.07 166.78 66.76 163.71C67.943 163.09 68.9955 162.248 69.86 161.23C70.2357 169.176 71.6614 177.038 74.1 184.61C75.56 189.15 78.1 195.73 82.98 200.42C83.1143 200.549 83.2727 200.649 83.4461 200.717C83.6195 200.784 83.8045 200.816 83.9904 200.811C84.1763 200.807 84.3594 200.765 84.5293 200.689C84.6991 200.614 84.8523 200.505 84.98 200.37C85.065 200.283 85.1389 200.185 85.2 200.08C85.3498 199.805 85.4045 199.488 85.3557 199.179C85.3069 198.87 85.1572 198.585 84.93 198.37C81.51 195.09 79 190.58 76.79 183.74C75.8477 180.783 75.06 177.779 74.43 174.74C74.6871 175.105 75.0011 175.425 75.36 175.69C82.42 180.89 90.47 158.9 90.79 154.62C90.822 154.438 90.7902 154.251 90.7 154.09C90.46 153.75 89.93 153.98 89.6 154.22C87.13 156.06 74.88 165.71 73.9 171.97C73.2434 168.271 72.8292 164.533 72.66 160.78C72.5001 156.626 72.5802 152.465 72.9 148.32C73.9 149.24 75.52 150.01 78.41 149.56C85.5 148.45 91.94 143.81 96.1 140.12C102.1 134.77 106.84 128.12 111.16 121.76C113.49 118.32 115.87 114.76 117.95 110.98C119.513 108.163 120.85 105.228 121.95 102.2C122.184 101.738 122.276 101.216 122.213 100.702C122.151 100.188 121.938 99.7032 121.6 99.3101C121.226 98.9645 120.76 98.7336 120.258 98.645C119.757 98.5564 119.24 98.6136 118.77 98.8101C111.711 100.86 105.009 103.983 98.9 108.07C88.7099 114.843 80.3163 123.988 74.44 134.72C74.81 132.12 75.2 129.53 75.58 126.97C76.37 121.73 77.19 116.32 77.77 110.97C78.391 105.426 78.6349 99.8468 78.5 94.2701L78.88 94.3901C80.97 94.9501 83.38 93.5901 85.16 90.8601C87.2733 87.6267 89.2567 84.3334 91.11 80.9801C98.6298 67.3603 104.067 52.6908 107.24 37.4601C107.279 37.2811 107.282 37.0963 107.25 36.9161C107.217 36.7359 107.149 36.5639 107.05 36.4101C106.819 36.0318 106.498 35.7162 106.116 35.4912C105.734 35.2663 105.303 35.1388 104.86 35.1201C103.25 35.0201 101.51 36.2301 100.51 37.4601C92.4427 47.4121 85.9473 58.5412 81.25 70.4601C80.88 71.4001 80.43 72.4601 79.95 73.5701C78.95 75.8201 77.95 78.33 77.09 80.83C75.849 73.8867 73.2713 67.2506 69.5 61.2901C63.6 52.1701 54.58 45.2901 46.63 39.2101C46.4441 39.0693 46.2263 38.9766 45.996 38.9399C45.7657 38.9033 45.53 38.924 45.3096 39.0001C45.0891 39.0762 44.8908 39.2054 44.7322 39.3763C44.5736 39.5472 44.4595 39.7546 44.4 39.9801C39.3 59.5501 50.13 82.3001 68.52 90.6901C70.52 91.6001 73.07 92.5301 75.59 91.9101C75.8745 98.1538 75.6605 104.41 74.95 110.62C74.53 114.53 73.95 118.48 73.4 122.38C73.3 122.15 73.19 121.89 73.08 121.61C71.76 118.23 71.13 114.61 69.5 111.33C66.77 105.89 61.5 102.04 55.89 99.7701C50.28 97.5 44.15 96.62 38.12 95.7701L22.98 93.6101C21.89 96.3201 23.48 99.3501 25.31 101.61C29.68 107.05 35.64 110.97 41.83 114.19C49.3974 118.131 57.4164 121.137 65.71 123.14C67.7531 123.764 69.8482 124.202 71.97 124.45C72.343 124.471 72.717 124.471 73.09 124.45C72.99 125.14 72.88 125.83 72.78 126.52C71.3931 134.799 70.4286 143.143 69.89 151.52C68.6175 149.558 67.0946 147.769 65.36 146.2C61.7847 142.928 57.4002 140.67 52.66 139.66C41.73 137.36 30.98 141.39 23.89 145.17C23.375 145.385 22.9105 145.704 22.5264 146.109C22.1424 146.514 21.8473 146.994 21.66 147.52C21.39 148.57 21.59 150.14 24.09 151.66L38.39 160.34ZM82.79 89.3401C81.63 91.1201 80.31 91.8601 79.6 91.6701C79.4852 91.6232 79.38 91.5554 79.29 91.4701C84.6135 77.7085 90.9059 64.3417 98.12 51.4701L98.51 50.7801C100.73 46.7801 103.02 42.7101 103.95 38.2201L104.22 38.0701C100.263 56.3144 92.9996 73.6805 82.79 89.3101V89.3401ZM82.56 74.7201C83.05 73.5701 83.5 72.5001 83.88 71.5401C88.4731 59.8763 94.8232 48.9837 102.71 39.2401C102.827 39.0914 102.957 38.9541 103.1 38.83C102.1 42.91 99.96 46.7101 97.89 50.4001L97.5 51.0901C90.3531 63.8479 84.1079 77.0902 78.81 90.7201C78.5911 90.1372 78.4694 89.5224 78.45 88.9001C78.21 84.9401 80.66 79.2701 82.56 74.7201ZM67.12 62.8701C70.7051 68.5338 73.154 74.841 74.33 81.4401C68.57 71.6101 62.89 61.6301 57.38 51.6501C61.0902 54.961 64.3632 58.7314 67.12 62.8701ZM55.78 50.2101C61.89 61.3201 68.23 72.4701 74.66 83.4101C74.84 84.5401 75.01 85.7001 75.14 86.8801C72.7629 82.479 70.0269 78.2815 66.96 74.33C65.96 72.94 64.96 71.5601 63.96 70.2201C61.96 67.3501 60.18 64.2201 58.46 61.2201C57.27 59.1401 56.04 56.9901 54.74 54.9301C52.23 50.9301 49.35 47.1401 46.52 43.4301C46.52 43.2301 46.59 43.0201 46.63 42.8101C49.75 45.2101 52.84 47.6301 55.78 50.2101ZM46.39 44.4201C49.07 47.9301 51.79 51.56 54.17 55.33C55.47 57.38 56.69 59.5301 57.88 61.6001C59.6 64.6001 61.38 67.7301 63.41 70.6001C64.35 71.9401 65.36 73.3201 66.41 74.7201C69.79 79.3301 73.25 84.0701 75.41 89.0301C74.9733 89.1856 74.5136 89.2668 74.05 89.2701C70.0852 86.4054 66.3444 83.2429 62.86 79.8101C59.0041 76.1232 55.6427 71.9517 52.86 67.4001C49.86 62.4001 47.91 56.8 46.05 51.33C45.9558 49.0212 46.0696 46.7085 46.39 44.4201ZM46.17 54.1001C47.7138 58.8532 49.7236 63.4422 52.17 67.8C54.9775 72.4014 58.369 76.6199 62.26 80.3501C65.4715 83.5173 68.8962 86.4609 72.51 89.1601C71.5379 88.9252 70.5929 88.5901 69.69 88.1601C56.59 82.1801 47.66 68.4101 46.17 54.1001ZM111.66 104.39C112.28 104.12 112.9 103.87 113.52 103.62C111.82 106.02 110.38 108.4 109 110.73C106.978 114.3 104.681 117.707 102.13 120.92C96.3 127.99 90.28 135.31 83.34 141.53C82.1284 142.661 80.694 143.526 79.1287 144.07C77.5634 144.614 75.9017 144.825 74.25 144.69C74.2195 144.334 74.2195 143.976 74.25 143.62C84.473 128.571 97.1134 115.316 111.66 104.39ZM108.84 120.17C104.63 126.37 100.02 132.86 94.24 138C90.37 141.44 84.41 145.76 78.01 146.75C76.33 147.02 75.22 146.75 74.7 146.07C74.5575 145.878 74.4524 145.661 74.39 145.43C76.1091 145.538 77.8321 145.294 79.4535 144.712C81.075 144.131 82.5608 143.225 83.82 142.05C90.82 135.8 96.82 128.46 102.68 121.38C105.251 118.135 107.564 114.695 109.6 111.09C111.16 108.49 112.76 105.83 114.73 103.16C116.2 102.6 117.73 102.1 119.19 101.66C116.75 108.27 112.9 114.19 108.83 120.17H108.84ZM100.53 110.43C103.164 108.677 105.914 107.103 108.76 105.72C95.5728 116.016 84.0159 128.243 74.48 141.99C74.8085 140.582 75.3054 139.219 75.96 137.93C76.33 137.21 76.7 136.5 77.09 135.79C82.7531 125.58 90.7891 116.882 100.52 110.43H100.53ZM34.94 143.8C47.5501 144.068 59.558 149.245 68.41 158.23C68.2438 158.605 68.0322 158.957 67.78 159.28C65.64 158.13 63.56 156.82 61.54 155.53C57.87 153.19 54.07 150.78 49.87 149.37C40.8 146.37 33.08 145.6 26.37 147.09C29.0353 145.739 31.8082 144.612 34.66 143.72C34.6973 143.751 34.7405 143.774 34.7869 143.788C34.8333 143.801 34.8819 143.806 34.93 143.8H34.94ZM24.66 148.25C31.66 146.19 39.85 146.78 49.66 150.05C53.78 151.42 57.53 153.81 61.17 156.13C62.98 157.28 64.85 158.47 66.77 159.54C60.77 160.14 54.84 158.87 49.77 157.54C41.12 155.26 32.7109 152.149 24.66 148.25ZM65.41 161.25C60.61 163.83 52.28 163.62 48.41 162.33C45.4035 161.191 42.5327 159.722 39.85 157.95L27.22 150.27C34.4121 153.566 41.8725 156.243 49.52 158.27C54.71 159.63 60.77 160.9 66.86 160.27C66.4079 160.632 65.9223 160.95 65.41 161.22V161.25ZM52.09 142.46C56.3279 143.373 60.2458 145.399 63.44 148.33C67.3 151.9 69.27 155.33 68.69 157.53C60.0908 148.939 48.6184 143.831 36.48 143.19C41.5516 141.715 46.8991 141.455 52.09 142.43V142.46Z" fill="#0F1428"/>
<path d="M75.76 48.03C75.9817 47.62 76.1594 47.1875 76.29 46.74C76.5868 45.4345 76.5645 44.0766 76.2251 42.7815C75.8857 41.4864 75.239 40.2922 74.34 39.3C73.4055 38.0704 72.0905 37.1845 70.6 36.78C69.7331 36.6085 68.8366 36.6639 67.9974 36.9407C67.1582 37.2175 66.4047 37.7064 65.81 38.3601C63.81 40.3601 62.62 43.5801 63.09 45.9201C63.3987 47.4005 64.1727 48.7435 65.299 49.7528C66.4252 50.7621 67.8447 51.3848 69.35 51.53C70.6385 51.6024 71.9216 51.313 73.0543 50.6945C74.187 50.076 75.1242 49.1531 75.76 48.03ZM65.87 45.3601C65.8165 44.4381 65.96 43.5152 66.2911 42.6531C66.6221 41.7909 67.1331 41.0092 67.79 40.3601C68.0548 40.0492 68.3925 39.8089 68.773 39.6605C69.1534 39.5122 69.5647 39.4605 69.97 39.51C70.8493 39.7799 71.6153 40.3316 72.15 41.08C72.746 41.7252 73.1837 42.5002 73.4284 43.3437C73.6731 44.1872 73.7182 45.0761 73.56 45.94C73.2834 46.7698 72.7426 47.4861 72.0201 47.9792C71.2977 48.4722 70.4335 48.7149 69.56 48.6701C68.6796 48.5638 67.8532 48.1891 67.193 47.597C66.5329 47.0048 66.0709 46.2238 65.87 45.3601Z" fill="#0F1428"/>
<path d="M84.38 35.9001C84.4901 36.6893 84.7515 37.4499 85.15 38.1401C85.8608 39.236 86.9225 40.0582 88.1614 40.4724C89.4002 40.8866 90.743 40.8681 91.97 40.4201C93.3968 39.8714 94.5787 38.8279 95.3 37.4801C95.766 36.6344 96.052 35.7015 96.14 34.74C96.2211 33.9072 96.1152 33.0668 95.83 32.2801C95.4854 31.4489 94.9393 30.7166 94.241 30.1492C93.5427 29.5818 92.7141 29.1972 91.83 29.0301C90.8219 28.7484 89.7595 28.7216 88.7385 28.952C87.7174 29.1824 86.7695 29.6628 85.98 30.3501C85.274 31.0699 84.7582 31.9541 84.4789 32.9229C84.1995 33.8918 84.1656 34.9148 84.38 35.9001ZM87.59 36.6901C87.2326 36.019 87.0738 35.2601 87.1322 34.502C87.1907 33.744 87.4639 33.0184 87.92 32.4101C88.3826 32.0471 88.9265 31.8019 89.5048 31.6957C90.0831 31.5894 90.6786 31.6252 91.24 31.8C91.6592 31.8708 92.0548 32.0426 92.3928 32.3004C92.7308 32.5583 93.001 32.8945 93.18 33.2801C93.314 33.6719 93.3584 34.0888 93.31 34.5001C93.2601 35.2067 93.0161 35.8859 92.605 36.4629C92.1939 37.0398 91.6316 37.4921 90.98 37.77C90.3779 37.99 89.7203 38.0063 89.1079 37.8167C88.4956 37.627 87.9624 37.2418 87.59 36.7201V36.6901Z" fill="#0F1428"/>
<path d="M73.44 24.18C74.1517 23.8849 74.7532 23.3743 75.16 22.72C75.3578 22.2602 75.4305 21.7563 75.3708 21.2593C75.3111 20.7623 75.1211 20.29 74.82 19.89C74.2067 19.0942 73.4063 18.4621 72.49 18.05C69 16.29 67.62 21.77 69.62 23.91C69.9237 24.2578 70.3134 24.5199 70.75 24.67C71.6762 24.8679 72.6431 24.6918 73.44 24.18Z" fill="#0F1428"/>
<path d="M80.08 3.96002C80.3797 4.4806 80.8202 4.90603 81.3509 5.18731C81.8816 5.4686 82.481 5.59431 83.08 5.55001C83.487 5.53823 83.8852 5.42958 84.2417 5.23306C84.5983 5.03653 84.9028 4.75782 85.13 4.42004C85.2938 4.13075 85.3959 3.81071 85.43 3.48004C85.5082 2.88879 85.4216 2.28742 85.1799 1.74221C84.9382 1.197 84.5506 0.72911 84.06 0.390039C81.9 -1.00996 78.88 1.59002 80.08 3.96002Z" fill="#0F1428"/>
<g style="mix-blend-mode:multiply" opacity="0.3">
<path d="M41.66 113.96C19.21 125.48 1.98 148.15 0.139996 173.31C-0.590004 183.31 1.41999 194.16 8.66999 201.05C13.19 205.36 19.28 207.65 25.36 209.05C43.9 213.28 63.41 210.05 82.15 213.24C95.84 215.54 109.34 221.24 123.15 219.45C144.05 216.74 159.41 196.84 163.57 176.17C178.21 103.21 91.66 88.3202 41.66 113.96Z" fill="#FFD4C5"/>
</g>
</g>
<defs>
<clipPath id="clip0_367_36">
<rect width="165.18" height="219.78" fill="white"/>
</clipPath>
</defs>
</svg>
