<svg width="186" height="173" viewBox="0 0 186 173" fill="none" xmlns="http://www.w3.org/2000/svg">
<g clip-path="url(#clip0_367_52)">
<g style="mix-blend-mode:multiply">
<path d="M63.3801 49.9201C51.1501 55.1401 41.4901 65.0201 33.3801 75.5801C25.5301 85.8001 18.8301 96.8601 12.1501 107.88C8.86008 113.31 5.52008 118.88 4.15008 125.07C1.15008 139.07 9.52011 153.72 21.4401 161.67C33.3601 169.62 48.1401 172 62.4401 172.54C79.7301 173.19 97.7101 171.24 112.69 162.54C118.52 159.17 123.88 154.72 127.33 148.93C130.62 143.42 132.02 137.02 133.21 130.71C135.89 116.44 137.74 101.71 135.14 87.4501C129.34 55.1201 94.2201 36.7401 63.3801 49.9201Z" fill="#FFF8D9"/>
</g>
<path d="M147.51 73.0701C147.563 73.0757 147.617 73.0757 147.67 73.0701C147.946 73.1087 148.227 73.0648 148.478 72.9437C148.729 72.8227 148.938 72.6301 149.08 72.3901C149.771 71.2771 150.539 70.2144 151.38 69.2101L152.23 68.1401C154.551 65.0953 156.128 61.5505 156.836 57.7883C157.545 54.026 157.364 50.1504 156.31 46.4701C156.189 45.9916 155.944 45.5535 155.6 45.2001C155.17 44.8348 154.635 44.6156 154.073 44.5743C153.51 44.5329 152.949 44.6716 152.47 44.9701C150.25 46.0801 148.56 48.3501 147.47 51.7201C145.37 58.1001 144.98 66.2601 146.47 72.0301C146.529 72.2834 146.657 72.5151 146.841 72.6989C147.025 72.8828 147.257 73.0113 147.51 73.0701ZM150.13 52.6401C150.98 50.0501 152.13 48.3401 153.66 47.5701C154.538 50.7867 154.663 54.1624 154.025 57.4351C153.387 60.7078 152.003 63.7892 149.98 66.4401L149.15 67.4401L148.62 68.1101C148.056 62.9044 148.57 57.6384 150.13 52.6401Z" fill="#0F1428"/>
<path d="M157.59 68.5999C157.743 68.971 157.974 69.305 158.268 69.5792C158.561 69.8535 158.91 70.0618 159.29 70.1899L159.52 70.2599C162.43 70.9999 165.87 67.3799 168.99 63.5399C172.177 59.865 173.95 55.1743 173.99 50.3099C174.041 49.8051 173.935 49.2968 173.687 48.8546C173.438 48.4125 173.058 48.058 172.6 47.8399C172.015 47.6292 171.375 47.6292 170.79 47.8399C166.19 49.2399 162.2 53.0699 159.79 58.3199C157.38 63.5699 156.77 66.7199 157.59 68.5999ZM162.36 59.4699C163.164 57.4989 164.352 55.7081 165.856 54.2022C167.361 52.6962 169.15 51.5056 171.12 50.6999C170.967 54.8431 169.388 58.8063 166.65 61.9199C161.82 67.8499 160.36 67.5499 160.21 67.5199C160.06 67.4899 159.3 66.2899 162.36 59.4899V59.4699Z" fill="#0F1428"/>
<path d="M179.74 66.91C179.5 66.91 161.74 68.36 160.41 73.91C145.379 73.579 130.429 76.2054 116.41 81.64C113.83 82.64 111.5 83.64 109.34 84.72C109.687 83.3146 109.917 81.8831 110.03 80.44C110.09 79.9 110.15 79.44 110.21 78.97C111.578 69.5375 110.567 59.9127 107.27 50.97C107.167 50.7023 106.985 50.4722 106.749 50.3099C106.512 50.1475 106.232 50.0606 105.945 50.0606C105.658 50.0606 105.378 50.1475 105.142 50.3099C104.905 50.4722 104.723 50.7023 104.62 50.97L100.3 62.3C98.58 66.81 96.63 71.92 97.04 77.3C97.31 80.65 99.2001 86.25 103.31 88.13C102.84 88.43 102.37 88.73 101.91 89.05C90.0786 96.9037 81.182 108.455 76.6101 121.9C76.4801 120.99 76.3801 120.11 76.2301 119.19C75.8901 116.96 75.5001 114.73 75.1001 112.5C73.6801 104.4 72.21 96.02 72.91 87.82C73.91 75.69 79.7501 64.38 84.6901 55.87C88.5837 49.1828 92.8297 42.707 97.41 36.47C97.78 39.92 102.71 43.4 102.76 43.47C104.285 44.5021 105.976 45.2633 107.76 45.72C109.778 46.2347 111.876 46.3569 113.94 46.08C116.095 45.9265 118.107 44.9487 119.56 43.35C121.08 41.5 121.36 38.35 119.35 36.56C118.512 35.8924 117.523 35.4393 116.47 35.24C115.86 35.09 115.11 34.87 114.27 34.63C108.73 33.05 103.51 31.73 100.27 32.73C101.08 31.66 101.91 30.61 102.75 29.56C105.174 30.729 107.693 31.6892 110.28 32.43C111.807 32.8794 113.408 33.0222 114.99 32.85C117.932 32.2789 120.797 31.3696 123.53 30.14C126.28 29.03 129.4 27.77 131.82 25.51C133.55 23.89 134.71 21.24 133.16 19.24C132.698 18.7313 132.137 18.3231 131.511 18.0409C130.885 17.7588 130.207 17.6087 129.52 17.6C123.757 17.1042 117.953 17.7846 112.46 19.6C112.877 18.8934 113.212 18.142 113.46 17.36C114.724 12.9713 115.367 8.42711 115.37 3.85999C115.45 1.05999 113.96 0.369988 113.31 0.199988C112.799 0.112701 112.275 0.148865 111.781 0.305426C111.287 0.461987 110.837 0.734398 110.47 1.09998C107.15 3.92998 105.04 8.25998 104.02 14.32L103.86 15.38C103.62 16.96 103.39 18.32 103.15 19.49C102.396 15.5868 101.394 11.7356 100.15 7.96C99.61 6.35 98.66 4.18999 96.52 3.63999H96.28C95.2798 3.51689 94.2674 3.73536 93.407 4.25996C92.5466 4.78455 91.8887 5.58451 91.54 6.53001C91.0189 8.05864 90.9187 9.69933 91.25 11.28C91.88 15.64 93.05 21.93 95.92 26.17C96.4 26.89 97.67 28.75 99.41 29.27C98.14 30.88 96.89 32.52 95.66 34.17C95.1598 32.0196 94.4255 29.9304 93.4701 27.94C91.9721 24.4676 89.2288 21.6816 85.78 20.13C83.78 19.31 81.8501 19.51 80.7201 20.7C80.2643 21.2152 79.9544 21.8428 79.8225 22.5179C79.6906 23.1931 79.7416 23.8912 79.9701 24.54C80.3276 25.5138 80.8633 26.4125 81.55 27.19C82.04 27.81 82.66 28.7 83.38 29.73C86.56 34.27 89.3801 38.11 92.0901 39.12C89.3568 43.02 86.7567 47.02 84.29 51.12C83.7176 48.5363 82.771 46.0501 81.4801 43.74C78.8811 38.7661 74.579 34.8935 69.3601 32.83C69.0582 32.7083 68.7232 32.6957 68.413 32.7942C68.1027 32.8928 67.8364 33.0964 67.66 33.37C66.6 34.99 67.3101 36.98 67.5801 37.73C69.6901 43.63 74.67 51.73 81.8 55.33C76.8 64 71.1401 75.38 70.0901 87.71C69.9901 88.84 69.94 89.98 69.91 91.11C62.84 79.03 52.1401 71.11 40.7201 62.99C41.5466 62.6194 42.2962 62.097 42.93 61.45C46.2281 57.9753 48.2818 53.5057 48.77 48.74C48.94 46.74 48.0701 45.26 46.5901 45.01C46.1067 44.9353 45.6122 44.9799 45.15 45.14C42.669 45.9626 40.5927 47.6959 39.3401 49.99C38.1843 52.1095 37.4475 54.4318 37.17 56.83C36.9697 58.0163 36.9395 59.2251 37.0801 60.42L33.4901 57.87C35.5701 55.87 36.0901 51.5 36.2001 50.03C36.6122 46.3418 35.6821 42.6285 33.5801 39.57C32.0701 37.57 29.3901 36.17 27.2101 37.52C26.5941 37.9848 26.0865 38.5779 25.7222 39.2582C25.3579 39.9384 25.1456 40.6897 25.1001 41.46C24.6101 44.72 24.1701 53.93 27.9901 57.46C28.4209 57.8546 28.9016 58.1908 29.42 58.46C31.93 60.29 34.42 62.07 36.93 63.82C50.46 73.35 63.24 82.36 70.12 97.74C70.53 102.94 71.43 108.1 72.3101 113.15C72.7001 115.37 73.0901 117.58 73.4401 119.79C75.3301 131.88 75.5701 142.4 74.2101 151.79C72.5301 145.26 68.63 138.59 62.51 131.88C59.8 128.88 56.86 126.08 54.02 123.35L52.78 122.16C53.5973 122.142 54.4013 121.948 55.1366 121.591C55.8719 121.234 56.5212 120.722 57.04 120.09C58.1105 118.756 58.9027 117.221 59.3699 115.575C59.837 113.93 59.9697 112.208 59.76 110.51C59.42 108.66 58.1101 106.73 56.0801 106.84C55.0801 106.91 53.3401 107.51 52.7001 110.84C52.5401 111.66 52.33 112.54 52.12 113.43C51.4795 115.709 51.1433 118.063 51.12 120.43C50.29 119.62 49.47 118.8 48.65 117.97C49.3847 117.173 49.9134 116.208 50.1901 115.16C51.8501 110.08 51.6701 103.29 49.7101 96.99C48.6201 93.5 46.7101 92.88 45.6101 92.82C44.9404 92.8214 44.2792 92.971 43.6741 93.258C43.069 93.545 42.5349 93.9623 42.1101 94.48C38.7601 98.08 39.11 103.27 39.76 106.64C38.2977 102.897 35.7217 99.6924 32.38 97.46C30.13 95.97 26.9401 95.05 24.7201 96.98C23.9596 97.7163 23.4434 98.6682 23.2413 99.7073C23.0392 100.746 23.161 101.822 23.5901 102.79C24.3538 104.398 25.5262 105.777 26.9901 106.79C29.6638 108.728 32.5572 110.342 35.6101 111.6C36.7559 112.039 37.9323 112.393 39.13 112.66H39.2301C39.6401 112.77 40.04 112.89 40.42 113.02C44.0445 117.367 47.9495 121.473 52.1101 125.31C54.9201 128 57.8201 130.79 60.4701 133.7C68.5301 142.56 72.54 151.22 72.38 159.44C72.3723 159.759 72.473 160.071 72.6655 160.325C72.858 160.579 73.1311 160.761 73.4401 160.84C73.5462 160.855 73.6539 160.855 73.76 160.84C73.9476 160.837 74.1327 160.796 74.3044 160.721C74.4761 160.645 74.631 160.536 74.76 160.4C74.9611 160.317 75.1405 160.19 75.2844 160.027C75.4283 159.864 75.5329 159.67 75.5901 159.46C77.8101 150.67 78.4301 140.84 77.4901 129.65C80.4901 114.35 89.7701 100.79 103.49 91.46C107.851 88.5803 112.528 86.2114 117.43 84.4C126.01 81.0024 134.979 78.6813 144.13 77.49C142.43 80.01 142.13 85.1 142.19 90.43V91.24C142.082 92.5982 142.273 93.9636 142.75 95.24C142.915 95.6892 143.181 96.0944 143.528 96.4239C143.875 96.7534 144.293 96.9985 144.75 97.14C144.881 97.1738 145.015 97.1973 145.15 97.21C145.81 97.27 147.44 97.11 148.33 94.46C148.94 92.6 149.49 90.7 149.97 88.82C149.97 88.73 152.11 80.07 149.51 76.99C153.196 76.7071 156.894 76.6136 160.59 76.71C160.695 76.7039 160.799 76.6872 160.9 76.66C161.088 76.9337 161.313 77.1795 161.57 77.39C162.221 77.8809 162.972 78.2223 163.77 78.39C168.77 79.67 177.65 77.46 178.66 77.1C181.75 75.99 183.76 74.48 184.8 72.47C185.245 71.6953 185.417 70.7941 185.29 69.91C184.93 67.85 182.8 66.69 179.74 66.91ZM105.63 57.12C105.25 66.45 105.33 75.87 105.42 85.03C102.42 81.46 101.31 75.84 102.42 69.43C102.929 66.8009 103.576 64.2005 104.36 61.64C104.82 60.17 105.25 58.66 105.63 57.12ZM107.44 78.52C107.38 78.99 107.32 79.52 107.26 80.1C107.1 81.58 106.82 84.1 106.13 85.21V85.02C106.04 76.02 105.99 66.67 106.36 57.46C108.08 64.3337 108.447 71.4763 107.44 78.49V78.52ZM99.91 76.98C99.54 72.28 101.37 67.49 102.99 63.26L103.83 61.05L103.71 61.46C102.908 64.0438 102.241 66.6673 101.71 69.32C100.52 76.05 101.71 81.93 105.03 85.66C104.88 85.6205 104.733 85.5703 104.59 85.51C102.01 84.4 100.17 80.3 99.93 76.98H99.91ZM109.91 36.24C111.22 36.58 112.48 36.94 113.53 37.24C115.38 37.76 116.8 37.93 117.53 38.56C118.26 39.19 118.08 40.64 117.43 41.43C116.409 42.4452 115.056 43.0592 113.62 43.16C110.4 43.5912 107.134 42.8262 104.44 41.01C102.44 39.66 100.17 37.01 100.29 35.92C100.29 35.85 100.29 35.63 100.92 35.39C102.73 34.65 106.52 35.38 109.93 36.24H109.91ZM129.27 20.3C129.878 20.2957 130.471 20.4886 130.96 20.85C131.36 21.36 130.73 22.56 129.96 23.32C127.96 25.22 125.2 26.32 122.55 27.39C120.014 28.5324 117.357 29.3844 114.63 29.93C112.12 30.32 107.92 28.62 104.8 27.23C106.045 26.3215 107.243 25.3502 108.39 24.32C114.84 21.0737 122.065 19.682 129.26 20.3H129.27ZM106.73 15.67L106.89 14.67C107.78 9.35999 109.62 5.48999 112.38 3.13999L112.57 2.99C112.595 3.21263 112.595 3.43738 112.57 3.66001C112.575 7.95911 111.975 12.2375 110.79 16.37C109.9 18.5511 108.489 20.4808 106.68 21.99C106.21 22.25 105.75 22.52 105.31 22.8C105.914 20.4517 106.384 18.0713 106.72 15.67H106.73ZM94.1001 10.67C93.8626 9.58124 93.9004 8.45047 94.2101 7.38001C94.5101 6.65001 95.21 6.1 95.8 6.21H95.8501C96.4601 6.37 97.01 7.21001 97.51 8.69001C99.33 14.13 101.51 22.84 100.91 26.03C100.784 26.1778 100.617 26.2856 100.43 26.34C100.19 26.4 99.4301 26.05 98.3201 24.34C96.4001 21.58 95.0201 17.1 94.0901 10.7L94.1001 10.67ZM85.75 27.89C85 26.81 84.3301 25.89 83.8201 25.23C83.3563 24.7155 82.9873 24.1231 82.7301 23.48C82.667 23.3176 82.6422 23.1429 82.6578 22.9695C82.6734 22.796 82.729 22.6285 82.8201 22.48C83.0301 22.25 83.5701 22.23 84.2001 22.39C84.3913 22.4347 84.5785 22.4949 84.76 22.57C87.5488 23.8606 89.7586 26.1416 90.9601 28.97C92.2501 31.72 93.23 35.07 93.15 36.3C91.1 35.57 87.7501 30.8 85.7401 27.92L85.75 27.89ZM27.93 41.66C28.09 40.59 28.3501 39.95 28.7301 39.71C29.3901 39.31 30.6401 40.09 31.3401 41.04C33.0276 43.5482 33.7618 46.5775 33.41 49.58C33.17 52.58 32.21 55.45 31.3101 55.8C31.1651 55.8306 31.0141 55.8131 30.88 55.75L30.4601 55.44C30.3708 55.3885 30.277 55.345 30.18 55.31L29.93 55.11C27.53 52.9 27.32 45.78 27.93 41.66ZM40.01 57.02C40.236 54.979 40.8505 53.0001 41.8201 51.19C42.7199 49.5488 44.1888 48.2934 45.9501 47.66C45.9774 47.8658 45.9774 48.0742 45.9501 48.28C45.5165 52.3643 43.7608 56.1952 40.9501 59.19C40.648 59.5052 40.3127 59.7868 39.9501 60.03C39.8007 59.0301 39.8243 58.0119 40.02 57.02H40.01ZM54.93 113.84C55.16 112.9 55.38 111.98 55.55 111.12C55.79 109.81 56.1901 109.39 56.3101 109.38C56.5113 109.544 56.6772 109.748 56.7975 109.978C56.9178 110.209 56.9901 110.461 57.01 110.72C57.2961 113.285 56.5795 115.861 55.01 117.91C54.7296 118.239 54.3905 118.514 54.01 118.72C54.2074 117.075 54.5148 115.444 54.93 113.84ZM36.76 108.79C33.9277 107.614 31.2427 106.11 28.76 104.31C27.7012 103.6 26.8436 102.629 26.27 101.49C26.0685 101.069 25.9952 100.598 26.0592 100.136C26.1232 99.6736 26.3217 99.2403 26.63 98.89C26.937 98.6767 27.2911 98.5408 27.662 98.4938C28.0328 98.4468 28.4095 98.4901 28.76 98.62C29.5101 98.836 30.2196 99.1738 30.8601 99.62C34.218 101.871 36.6559 105.253 37.7301 109.15C37.3434 109.023 37.0134 108.903 36.7401 108.79H36.76ZM44.1901 96.19C44.5013 95.7777 44.96 95.5017 45.4701 95.42C46.0101 95.42 46.6 96.29 47.01 97.61C48.8 103.36 49.01 109.51 47.51 114.05C47.3664 114.523 47.1719 114.979 46.93 115.41C46.47 114.884 46.052 114.322 45.68 113.73C45.54 113.54 45.41 113.34 45.27 113.14C45.04 112.54 44.69 111.69 44.27 110.78C43.69 109.38 42.8301 107.26 42.7101 106.78C42.0701 104.13 41.35 99.21 44.17 96.19H44.1901ZM40.7201 109.43C40.7155 109.377 40.7155 109.323 40.7201 109.27C40.7095 109.323 40.7028 109.376 40.7001 109.43H40.7201ZM147.25 88.13C146.79 89.94 146.25 91.77 145.66 93.57C145.595 93.785 145.508 93.9928 145.4 94.19V94.12C145.102 93.2116 144.99 92.2526 145.07 91.3V90.49C145.07 79.74 146.61 78.84 146.94 78.77C147.052 78.7416 147.168 78.7416 147.28 78.77C147.327 78.7782 147.37 78.8031 147.4 78.84C148.45 79.91 147.93 85.49 147.23 88.13H147.25ZM182.32 71.19C181.62 72.54 180.12 73.6 177.73 74.46C175.34 75.32 165.54 76.96 163.4 75.21C163.295 75.1309 163.217 75.0209 163.178 74.8953C163.138 74.7698 163.139 74.635 163.18 74.51C163.49 72.51 173.7 70.18 179.96 69.74C180.533 69.6889 181.11 69.7294 181.67 69.86C182.16 69.99 182.49 70.19 182.53 70.43C182.531 70.7007 182.451 70.9655 182.3 71.19H182.32Z" fill="#0F1428"/>
<path d="M164.4 79.89C164.05 79.73 163.63 79.52 163.17 79.28C160.56 77.95 156.62 75.93 154.33 78.61C152.04 81.29 154.6 86.83 155.95 89.56C157.839 93.3842 160.264 96.9197 163.15 100.06C164.783 102.076 166.938 103.604 169.38 104.48L169.67 104.56C170.708 104.885 171.814 104.921 172.871 104.666C173.928 104.41 174.895 103.873 175.67 103.11C177.28 101.32 177.16 98.85 176.87 96.9C175.97 90.66 173.68 86.02 170.07 83.09C168.338 81.7653 166.429 80.6883 164.4 79.89ZM170.19 101.77C168.231 101.03 166.505 99.78 165.19 98.15C162.453 95.1577 160.157 91.7905 158.37 88.15C156.13 83.63 155.91 81.63 156.24 80.76C157.576 82.9698 159.024 85.1093 160.58 87.17C161.52 88.36 162.58 89.52 163.58 90.63C164.58 91.74 165.44 92.75 166.32 93.85C166.89 94.57 167.45 95.31 168 96.06C169.411 98.104 171.052 99.9796 172.89 101.65C172.028 101.989 171.078 102.031 170.19 101.77ZM173.52 101.22C171.656 99.5665 170.004 97.6889 168.6 95.63C168.04 94.88 167.48 94.13 166.9 93.41C166.02 92.29 165.06 91.21 164.14 90.17C163.22 89.13 162.14 87.91 161.22 86.73C159.636 84.6359 158.164 82.4595 156.81 80.21C157.301 80.0511 157.829 80.0511 158.32 80.21C159.565 80.5986 160.768 81.1111 161.91 81.74C162.43 82.01 162.91 82.25 163.29 82.42C165.075 83.129 166.756 84.074 168.29 85.23C172.07 88.3 173.52 93.46 174.07 97.23C174.32 99.3 174.16 100.49 173.52 101.22Z" fill="#0F1428"/>
<path d="M17.9301 71.19C18.4001 71.02 19.0801 70.82 19.8701 70.57C24.9601 69.02 33.4801 66.42 32.0001 61.46C31.8053 60.7771 31.4724 60.1415 31.0217 59.5927C30.5709 59.0439 30.0121 58.5937 29.3801 58.27C25.7801 56.39 19.9901 57.89 15.3801 59.4C11.9301 60.52 7.7101 62.3 5.6701 66.09C4.6701 67.91 4.43011 70.44 6.06011 72.01C6.57449 72.5052 7.21403 72.8509 7.91009 73.01C8.74299 73.1999 9.60303 73.2406 10.4501 73.13C13.0111 72.78 15.5218 72.1288 17.9301 71.19ZM8.12005 67.43C9.69005 64.53 13.2701 63.05 16.2201 62.09C18.4001 61.38 25.0601 59.2 28.0601 60.78C28.3572 60.9296 28.62 61.1393 28.8317 61.3958C29.0435 61.6523 29.1995 61.95 29.2901 62.27C29.9601 64.53 21.7401 67.04 19.0401 67.86C18.2001 68.12 17.4801 68.34 16.9701 68.52C14.7668 69.389 12.4669 69.99 10.1201 70.31C9.75875 70.3995 9.38328 70.4155 9.01568 70.3571C8.64808 70.2987 8.29593 70.1671 7.98016 69.97C7.45016 69.49 7.66016 68.29 8.11016 67.43H8.12005Z" fill="#0F1428"/>
<path d="M3.93011 51.49C7.24517 52.98 10.6683 54.2169 14.1701 55.19C17.6701 56.08 20.1701 56.14 21.5801 55.36C22.0007 55.1378 22.3623 54.8188 22.6353 54.4294C22.9083 54.0399 23.0847 53.5911 23.1501 53.12C23.2181 52.6148 23.1813 52.101 23.0419 51.6107C22.9026 51.1203 22.6637 50.6639 22.3401 50.27C19.3401 46.27 8.45013 43.49 6.45013 43.27C5.24549 43.0451 4.00462 43.1103 2.83014 43.46C2.0829 43.6875 1.4186 44.1288 0.919249 44.7295C0.419898 45.3301 0.107287 46.0638 0.0200789 46.84C-0.0699211 48.15 0.500113 50.03 3.93011 51.49ZM2.84015 47C2.90131 46.7843 3.01724 46.588 3.1767 46.4303C3.33615 46.2726 3.53363 46.1588 3.75006 46.1C4.51213 45.9036 5.30897 45.8831 6.08014 46.04C8.83014 46.4 18.0301 49.22 20.0801 51.96C20.1904 52.0831 20.2623 52.2358 20.2872 52.3992C20.312 52.5626 20.2888 52.7297 20.2202 52.88C19.0102 53.54 14.3202 52.88 4.97015 48.88C3.60015 48.29 2.79014 47.58 2.83014 47.03L2.84015 47Z" fill="#0F1428"/>
<path d="M25.59 73.18C25.127 74.0443 24.9464 75.0319 25.0738 76.0041C25.2011 76.9763 25.6299 77.8841 26.3 78.6C26.8153 79.0885 27.4497 79.4333 28.14 79.6C29.0026 79.8132 29.9061 79.796 30.76 79.55C32.0126 79.1433 33.1577 78.4597 34.1101 77.55C34.1901 77.48 41.63 70.55 39.73 67.19C38.52 65.07 35.26 66.19 34.04 66.61C32.1253 67.3449 30.3422 68.3851 28.76 69.69C27.4402 70.584 26.3534 71.7806 25.59 73.18ZM34.96 69.32C35.6726 69.0359 36.4248 68.8639 37.19 68.81C36.87 70.17 34.29 73.7 32.27 75.43C31.6202 76.0511 30.8467 76.5282 29.9999 76.83C29.7103 76.9331 29.3996 76.9624 29.0958 76.9153C28.792 76.8681 28.5047 76.746 28.26 76.56C28.037 76.2504 27.9072 75.8835 27.8859 75.5025C27.8647 75.1216 27.9528 74.7425 28.14 74.41C28.727 73.4287 29.5267 72.5915 30.48 71.96C31.8136 70.8489 33.3157 69.9577 34.93 69.32H34.96Z" fill="#0F1428"/>
<path d="M19.6101 129.85C20.519 130.051 21.4546 130.102 22.38 130C29.23 129.47 41.15 127.7 44.04 121.89C45.2 119.56 44.53 118.04 43.78 117.17C40.36 113.26 27.6001 115.67 25.6001 116.34C20.5001 118.08 17.24 121.22 16.67 124.96C16.4346 126.128 16.6681 127.342 17.32 128.34C17.8772 129.102 18.6901 129.638 19.6101 129.85ZM19.47 125.38C20.04 121.61 24.59 119.68 26.47 119.03C28.77 118.25 36.37 117.3 39.97 118.22C40.58 118.325 41.1443 118.611 41.59 119.04C41.71 119.17 42.01 119.51 41.45 120.63C39.82 123.91 32.5901 126.36 22.1101 127.18C20.7301 127.28 19.88 127.12 19.57 126.69C19.3828 126.279 19.3474 125.815 19.47 125.38Z" fill="#0F1428"/>
<path d="M35.93 134.75C35.18 136.59 35.82 137.62 36.27 138.07C36.5993 138.396 37.0104 138.628 37.4601 138.74C37.7167 138.796 37.9777 138.829 38.2401 138.84C40.5853 138.797 42.8499 137.977 44.68 136.51C46.92 134.93 50.04 132.51 51.25 129.51C51.3521 129.259 51.3801 128.985 51.3304 128.719C51.2808 128.453 51.1557 128.207 50.9701 128.01C50.3382 127.308 49.5676 126.745 48.707 126.356C47.8464 125.967 46.9145 125.761 45.9701 125.75C44.8476 125.841 43.7636 126.201 42.81 126.8C39.7011 128.617 37.2817 131.412 35.93 134.75ZM46.0801 128.62C46.3292 128.612 46.5782 128.639 46.82 128.7C47.3054 128.834 47.7627 129.054 48.17 129.35C46.7611 131.258 45.0241 132.9 43.04 134.2C41.7537 135.268 40.1591 135.895 38.4901 135.99L38.55 135.82C39.6728 133.08 41.6697 130.788 44.2301 129.3C44.7808 128.931 45.4115 128.697 46.07 128.62H46.0801Z" fill="#0F1428"/>
<path d="M134.36 118.11C134.577 118.091 134.786 118.024 134.973 117.913C135.16 117.802 135.319 117.651 135.44 117.47C135.56 117.289 135.636 117.083 135.662 116.868C135.688 116.653 135.664 116.434 135.59 116.23C132.961 108.585 127.962 101.979 121.32 97.37C118.14 95.17 107.32 88.31 102.32 92.37C101.725 92.8151 101.237 93.3871 100.891 94.0444C100.545 94.7017 100.35 95.4278 100.32 96.17C100.23 99.73 103.78 103.17 107.12 106.17L107.68 106.67C113.75 112.2 119.96 115.79 125.98 117.33C128.712 118.048 131.543 118.312 134.36 118.11ZM103.45 95.32C105.19 96.27 107.15 97.25 109.05 98.2C111.5 99.42 114.05 100.68 116.05 101.88C118.973 103.479 121.735 105.354 124.3 107.48C126.325 109.429 128.098 111.622 129.58 114.01L130.41 115.23C121.27 110.739 112.845 104.919 105.41 97.96C104.624 97.2742 103.929 96.4913 103.34 95.63C103.366 95.5233 103.403 95.4194 103.45 95.32ZM108.81 94.25C112.714 95.4668 116.394 97.3073 119.71 99.7C125.309 103.588 129.659 109.017 132.23 115.33C131.94 115.33 131.64 115.33 131.34 115.33L130.18 113.65C128.675 111.209 126.863 108.971 124.79 106.99C122.195 104.828 119.395 102.926 116.43 101.31C114.37 100.09 111.83 98.83 109.37 97.6C107.51 96.68 105.6 95.73 103.9 94.8C103.98 94.73 104.04 94.65 104.14 94.57C105.12 93.74 106.8 93.74 108.81 94.25ZM109.62 104.56L109.05 104.04C107.41 102.57 103.72 99.27 103.25 96.77C103.768 97.3831 104.329 97.9579 104.93 98.49C111.901 105.006 119.739 110.528 128.22 114.9C120.82 113.49 114.23 108.74 109.62 104.56Z" fill="#0F1428"/>
<path d="M58.72 73.2801C59.1941 73.4139 59.6959 73.4139 60.17 73.2801C63.79 72.1701 65.64 63.0301 65.51 61.0101C65.1302 57.4061 64.3073 53.8627 63.06 50.4601C62.9759 50.2006 62.8187 49.9708 62.6074 49.7982C62.3961 49.6256 62.1396 49.5176 61.8685 49.487C61.5974 49.4564 61.3231 49.5046 61.0787 49.6257C60.8342 49.7469 60.6299 49.9358 60.4901 50.1701C58.7301 53.1701 52.8701 65.3601 56.2401 71.1101C56.4838 71.6216 56.8295 72.078 57.2559 72.4511C57.6824 72.8243 58.1807 73.1064 58.72 73.2801Z" fill="#0F1428"/>
<path d="M41.93 19.62C41.0544 19.8946 40.2467 20.3513 39.56 20.96C38.7875 21.5064 38.1683 22.2421 37.762 23.0967C37.3558 23.9513 37.1761 24.8959 37.2401 25.84C37.3875 26.7159 37.7518 27.541 38.3 28.24C39.1892 29.4951 40.4806 30.4089 41.96 30.83C42.2058 30.8968 42.4567 30.9436 42.71 30.97C43.6981 31.0303 44.686 30.8508 45.5897 30.4468C46.4934 30.0429 47.286 29.4264 47.9 28.65C48.3637 28.1375 48.7111 27.5308 48.9183 26.8714C49.1254 26.212 49.1875 25.5156 49.1 24.83C48.9734 24.2266 48.7397 23.6509 48.41 23.13C47.02 20.91 44.62 18.83 41.93 19.62Z" fill="#0F1428"/>
<path d="M60.25 21.23C60.3491 20.7181 60.3491 20.1919 60.25 19.68C60.2062 19.1811 60.1091 18.6882 59.9601 18.21C59.7074 17.3905 59.2292 16.6586 58.5802 16.0981C57.9312 15.5375 57.1376 15.1708 56.29 15.04C55.4586 14.9421 54.6166 15.0829 53.8622 15.446C53.1078 15.809 52.4723 16.3792 52.03 17.09C51.5346 17.8587 51.2402 18.7395 51.1738 19.6515C51.1074 20.5636 51.2712 21.4777 51.65 22.31C51.9037 22.9265 52.2923 23.4782 52.7872 23.9247C53.2822 24.3712 53.8708 24.701 54.51 24.89C54.7173 24.9387 54.9279 24.9722 55.14 24.99C56.99 25.12 58.37 23.83 59.26 22.85C59.7204 22.4014 60.0608 21.8444 60.25 21.23ZM57.4701 20.03C57.4886 20.1962 57.4886 20.3639 57.4701 20.53C57.3808 20.6881 57.2696 20.8328 57.14 20.96C56.4 21.7934 55.8001 22.1934 55.3401 22.16C55.0869 22.1006 54.8529 21.9776 54.6604 21.8026C54.4679 21.6276 54.3233 21.4065 54.2401 21.16C54.0622 20.7637 53.9829 20.3302 54.009 19.8966C54.0352 19.463 54.1658 19.0421 54.39 18.67C54.5381 18.3998 54.7617 18.1784 55.0333 18.0328C55.305 17.8872 55.613 17.8237 55.9201 17.85C56.2417 17.917 56.5383 18.0723 56.7767 18.2984C57.0152 18.5244 57.186 18.8124 57.27 19.13C57.3673 19.4224 57.4344 19.724 57.4701 20.03Z" fill="#0F1428"/>
<path d="M45.93 14.8199L46.47 14.9799C47.2174 15.2051 48.0178 15.1805 48.75 14.9099C49.3817 14.6233 49.9114 14.1512 50.2686 13.5564C50.6258 12.9617 50.7937 12.2723 50.75 11.5799C50.7084 10.7591 50.4602 9.96213 50.0284 9.26287C49.5966 8.56361 48.9952 7.98473 48.28 7.57992C47.7261 7.27685 47.1 7.13066 46.4692 7.1571C45.8383 7.18353 45.2266 7.38157 44.7 7.72991C43.7729 8.36717 43.1279 9.3382 42.9 10.4399C42.7111 11.0932 42.7111 11.7866 42.9 12.4399C43.37 14.0299 45.13 14.5799 45.93 14.8199ZM45.6001 11.0799C45.6592 10.6849 45.8665 10.3273 46.18 10.0799C46.2543 10.0227 46.3405 9.98309 46.4323 9.96404C46.5241 9.94499 46.6191 9.947 46.71 9.96993C46.779 9.98612 46.846 10.0096 46.91 10.0399C47.1902 10.2073 47.427 10.4386 47.6008 10.715C47.7746 10.9913 47.8805 11.3048 47.91 11.6299C47.9243 11.7417 47.9158 11.8551 47.8848 11.9634C47.8539 12.0717 47.8012 12.1726 47.7301 12.2599C47.4173 12.2662 47.1068 12.2048 46.82 12.0799C45.82 11.7599 45.6399 11.5299 45.6199 11.4699C45.5676 11.3468 45.5437 11.2135 45.55 11.0799H45.6001Z" fill="#0F1428"/>
<path d="M97.8699 118.54C97.0694 118.927 96.3809 119.512 95.8699 120.24C95.3115 120.935 94.9025 121.738 94.6685 122.598C94.4345 123.458 94.3805 124.358 94.51 125.24C94.7324 126.204 95.1853 127.1 95.8297 127.85C96.4741 128.601 97.2909 129.184 98.21 129.55C98.5059 129.674 98.8099 129.778 99.1199 129.86C100.149 130.161 101.253 130.072 102.22 129.61C102.766 129.322 103.254 128.936 103.66 128.47C105.4 126.55 106.66 123.64 105.16 121.25C104.633 120.489 103.952 119.849 103.16 119.37C102.422 118.792 101.549 118.413 100.623 118.268C99.6971 118.122 98.7494 118.216 97.8699 118.54Z" fill="#0F1428"/>
<path d="M133.05 54.96C132.302 54.3781 131.419 53.9965 130.483 53.8512C129.546 53.706 128.589 53.802 127.7 54.13C126.901 54.5242 126.214 55.1121 125.7 55.84C125.142 56.5349 124.734 57.338 124.501 58.1985C124.269 59.0591 124.217 59.9585 124.35 60.84C124.573 61.8036 125.026 62.6989 125.671 63.4494C126.315 64.1999 127.131 64.7834 128.05 65.15C128.34 65.2768 128.642 65.3772 128.95 65.45C129.982 65.7487 131.087 65.6635 132.06 65.21C132.602 64.9163 133.087 64.5266 133.49 64.06C135.23 62.14 136.49 59.24 135 56.85C134.487 56.0924 133.823 55.4489 133.05 54.96ZM131.4 62.16C131.232 62.3645 131.029 62.5373 130.8 62.67C130.534 62.7644 130.252 62.8016 129.971 62.7792C129.69 62.7568 129.417 62.6752 129.17 62.54C128.684 62.35 128.25 62.0482 127.902 61.659C127.555 61.2698 127.304 60.8042 127.17 60.3C127.116 59.8055 127.162 59.305 127.306 58.8289C127.451 58.3528 127.69 57.9109 128.01 57.53C128.239 57.188 128.548 56.9066 128.91 56.71C129.302 56.572 129.728 56.572 130.12 56.71C130.614 56.8465 131.08 57.0664 131.5 57.36C131.951 57.6316 132.343 57.9922 132.65 58.42C133.3 59.43 132.39 61.07 131.4 62.16Z" fill="#0F1428"/>
<path d="M108 139.21C108.287 139.288 108.583 139.325 108.88 139.32C109.406 139.278 109.918 139.135 110.39 138.9C110.849 138.71 111.288 138.476 111.7 138.2C112.414 137.724 112.98 137.058 113.333 136.276C113.687 135.495 113.814 134.63 113.7 133.78C113.558 132.956 113.183 132.189 112.619 131.571C112.056 130.953 111.327 130.508 110.52 130.29C109.64 130.033 108.71 130.003 107.816 130.2C106.921 130.398 106.09 130.817 105.4 131.42C104.793 131.901 104.328 132.536 104.054 133.26C103.779 133.983 103.705 134.768 103.84 135.53C104.086 136.293 104.504 136.99 105.062 137.566C105.621 138.142 106.304 138.581 107.06 138.85C107.359 139.004 107.675 139.124 108 139.21ZM107.24 133.57C107.558 133.296 107.934 133.1 108.34 132.996C108.746 132.892 109.17 132.883 109.58 132.97H109.67C109.971 133.035 110.246 133.186 110.462 133.404C110.679 133.622 110.827 133.899 110.89 134.2C110.925 134.526 110.866 134.855 110.721 135.149C110.576 135.443 110.35 135.689 110.07 135.86C109.808 136.027 109.53 136.168 109.24 136.28C109.093 136.353 108.939 136.41 108.78 136.45C108.598 136.415 108.422 136.351 108.26 136.26C107.26 135.79 106.69 135.33 106.6 134.88C106.593 134.626 106.647 134.374 106.759 134.146C106.87 133.918 107.035 133.72 107.24 133.57Z" fill="#0F1428"/>
<path d="M115.39 127.36C116.166 127.085 116.861 126.618 117.408 126.003C117.955 125.387 118.338 124.643 118.52 123.84C118.651 123.224 118.612 122.583 118.406 121.987C118.199 121.392 117.835 120.863 117.35 120.46C116.483 119.735 115.367 119.377 114.24 119.46C113.573 119.48 112.925 119.688 112.37 120.06C110.95 121.06 110.93 122.89 110.92 123.67C110.828 124.637 111.083 125.605 111.64 126.4C112.052 126.897 112.613 127.248 113.24 127.4C113.946 127.591 114.692 127.577 115.39 127.36ZM113.75 123.75C113.75 122.66 113.94 122.46 114 122.42C114.06 122.38 114.1 122.35 114.41 122.33C114.625 122.318 114.841 122.339 115.05 122.39C115.216 122.424 115.371 122.5 115.5 122.61C115.606 122.684 115.686 122.79 115.729 122.912C115.772 123.034 115.776 123.166 115.74 123.29C115.659 123.601 115.504 123.888 115.288 124.127C115.072 124.365 114.802 124.548 114.5 124.66C114.292 124.746 114.058 124.746 113.85 124.66C113.753 124.367 113.719 124.057 113.75 123.75Z" fill="#0F1428"/>
<path d="M133.42 40.34C134.196 40.0657 134.891 39.6004 135.439 38.9869C135.988 38.3735 136.374 37.6317 136.56 36.83C136.689 36.2134 136.649 35.5734 136.442 34.9781C136.236 34.3829 135.873 33.8547 135.39 33.4499C134.524 32.7224 133.408 32.3634 132.28 32.4499C131.614 32.4682 130.966 32.6726 130.41 33.0399C128.99 34.0399 128.97 35.87 128.95 36.66C128.863 37.6262 129.118 38.5924 129.67 39.39C130.085 39.8885 130.649 40.2394 131.28 40.39C131.983 40.5821 132.727 40.5648 133.42 40.34ZM131.88 37.66C131.782 37.3638 131.751 37.0495 131.79 36.74C131.79 35.65 131.98 35.45 132.04 35.4C132.166 35.344 132.302 35.3167 132.44 35.3199C132.658 35.3077 132.878 35.3279 133.09 35.38C133.254 35.4151 133.408 35.4869 133.54 35.59C133.643 35.6686 133.722 35.776 133.764 35.8987C133.807 36.0215 133.812 36.1541 133.78 36.28C133.698 36.5923 133.541 36.88 133.323 37.1186C133.106 37.3572 132.833 37.5395 132.53 37.65C132.336 37.7146 132.126 37.7181 131.93 37.66H131.88Z" fill="#0F1428"/>
</g>
<defs>
<clipPath id="clip0_367_52">
<rect width="185.35" height="172.65" fill="white"/>
</clipPath>
</defs>
</svg>
