<svg width="169" height="55" viewBox="0 0 169 55" fill="none" xmlns="http://www.w3.org/2000/svg">
<path d="M10.8723 7.10643L22.0851 29.7235L17.2553 39.0426L0.957443 7.12773L10.8723 7.10643ZM31.3617 10.3617C31.3617 14.5107 26.1915 21.3405 26.1915 21.3405C25.5162 15.8736 22.9135 10.8266 18.8511 7.10643H27.8936C28.3295 7.09797 28.7628 7.17547 29.1687 7.3345C29.5747 7.49353 29.9454 7.73099 30.2595 8.03329C30.5737 8.33559 30.8251 8.69681 30.9997 9.09634C31.1742 9.49587 31.2683 9.92585 31.2766 10.3617H31.3617Z" fill="#0F1428"/>
<path d="M46.1702 38.3618C37.4042 38.3618 33.0851 37.2128 33.0851 31.9788C33.0851 26.7448 37.3404 25.4469 46.1702 25.4469C44.8937 25.9808 43.8116 26.8932 43.0698 28.0612C42.3279 29.2291 41.962 30.5964 42.0213 31.9788C41.9837 33.338 42.3605 34.6765 43.1015 35.8165C43.8425 36.9566 44.9128 37.8443 46.1702 38.3618ZM36.6596 19.0852C36.6638 18.3539 36.8845 17.6402 37.2938 17.0342C37.7032 16.4282 38.2828 15.957 38.9596 15.6801C39.6365 15.4031 40.3802 15.3328 41.0969 15.4781C41.8136 15.6233 42.4713 15.9776 42.987 16.4962C43.5026 17.0147 43.853 17.6745 43.9942 18.392C44.1353 19.1096 44.0608 19.8528 43.78 20.5281C43.4991 21.2033 43.0246 21.7803 42.4163 22.1861C41.8079 22.592 41.093 22.8086 40.3617 22.8086C39.8729 22.8114 39.3885 22.7169 38.9366 22.5306C38.4848 22.3442 38.0746 22.0697 37.73 21.7231C37.3853 21.3765 37.1132 20.9647 36.9294 20.5118C36.7456 20.0589 36.6539 19.5739 36.6596 19.0852ZM59.0213 25.2129V38.4256H50.1489V20.149C50.1489 15.0426 48.0213 13.4469 48.0213 13.4469C55.9149 13.4469 59.0213 16.4256 59.0213 25.149V25.2129Z" fill="#0F1428"/>
<path d="M66.1915 17.383L75.0851 13.4469V38.3618H66.1915V17.383ZM92.5958 22.4256V38.3618H83.7022V21.7873C83.7022 18.5745 82.4894 17.0639 80.8723 16.6596C79.9619 16.4532 79.0168 16.4532 78.1064 16.6596C80.1681 14.6701 82.8828 13.498 85.7447 13.3618C91.0638 13.4469 92.5958 17.149 92.5958 22.4256Z" fill="#0F1428"/>
<path d="M93 24.0031C93.0811 21.8648 93.9221 19.796 95.4145 18.0637C96.9069 16.3314 98.9822 15.015 101.373 14.2845C100.838 16.0398 101.983 20.8991 104.859 25.4802C106.79 28.942 109.797 31.9006 113.562 34.0428C111.843 34.46 110.059 34.6619 108.269 34.6422C99.4639 34.7493 93 29.9327 93 24.0031ZM124.887 46.1162C125.173 47.7955 124.913 49.5086 124.133 51.073C123.353 52.6375 122.083 53.9947 120.459 55C120.459 55 123.996 48.0856 113.461 48.0856H103.739C97.9625 48.0856 94.3234 45.945 94.3234 42.4771C94.3234 37.9817 100.38 35.948 100.38 35.948C100.38 35.948 98.0134 39.9083 103.408 39.9083H114.326C119.237 39.9083 124.2 41.7921 124.887 46.1162ZM103.052 13.8349C104.745 13.4131 106.503 13.204 108.269 13.2141C117.151 13.2141 123.538 18.0092 123.538 23.9175C123.444 26.0421 122.6 28.095 121.113 29.8144C119.627 31.5339 117.565 32.842 115.191 33.5719C115.726 31.8165 114.606 26.9572 111.679 22.3762C109.769 18.9283 106.789 15.9776 103.052 13.8349ZM117.303 9.55356C114.691 9.69114 112.249 10.6914 110.509 12.3364C110.509 12.3364 112.239 5.55052 118.143 4.11627C121.604 3.30281 125.294 6.85631 122.673 11.6942C122.004 11.042 121.181 10.5132 120.257 10.1411C119.333 9.76905 118.327 9.56173 117.303 9.53216V9.55356Z" fill="#0F1428"/>
<path d="M138.872 5.27663C138.872 6.32115 138.562 7.34219 137.982 8.21038C137.401 9.07856 136.575 9.75486 135.61 10.1536C134.645 10.5523 133.583 10.6556 132.558 10.4502C131.534 10.2449 130.594 9.74024 129.857 9.00016C129.12 8.26009 128.619 7.31792 128.418 6.29296C128.217 5.26801 128.324 4.20639 128.727 3.2426C129.13 2.27881 129.809 1.45618 130.68 0.87895C131.55 0.301717 132.573 -0.00416781 133.617 4.39532e-05C134.31 -0.00279498 134.996 0.131918 135.636 0.39635C136.277 0.660783 136.858 1.04967 137.347 1.5405C137.836 2.03133 138.222 2.61431 138.484 3.25565C138.746 3.89699 138.878 4.58392 138.872 5.27663ZM129.149 17.383L138.021 13.4469V38.3617H129.149V17.383Z" fill="#0F1428"/>
<path d="M156 38.3618C147.234 38.3618 142.894 37.2128 142.894 31.9788C142.894 26.7448 147.149 25.4469 156 25.4469C154.704 25.9638 153.599 26.869 152.837 28.0384C152.075 29.2078 151.694 30.5841 151.745 31.9788C151.715 33.3504 152.108 34.6979 152.869 35.8393C153.63 36.9808 154.723 37.8612 156 38.3618ZM146.468 19.0852C146.468 18.3488 146.686 17.6289 147.096 17.0166C147.505 16.4043 148.086 15.927 148.767 15.6452C149.447 15.3634 150.196 15.2897 150.918 15.4333C151.64 15.577 152.304 15.9316 152.824 16.4523C153.345 16.9731 153.7 17.6365 153.843 18.3588C153.987 19.081 153.913 19.8297 153.631 20.5101C153.35 21.1904 152.872 21.772 152.26 22.1811C151.648 22.5902 150.928 22.8086 150.192 22.8086C149.702 22.8114 149.216 22.717 148.763 22.5309C148.31 22.3448 147.899 22.0707 147.552 21.7243C147.206 21.378 146.932 20.9664 146.746 20.5134C146.56 20.0604 146.465 19.5749 146.468 19.0852ZM168.851 25.2129V38.4256H159.957V20.149C159.957 15.0426 157.83 13.4469 157.83 13.4469C165.723 13.4469 168.851 16.4256 168.851 25.149V25.2129Z" fill="#0F1428"/>
</svg>
