<svg width="22" height="22" viewBox="0 0 22 22" fill="none" xmlns="http://www.w3.org/2000/svg">
<path d="M20.8696 15.386H5.51466C5.22377 15.386 4.9448 15.2704 4.73912 15.0647C4.53343 14.8591 4.41788 14.5801 4.41788 14.2892C4.41788 13.9983 4.53343 13.7193 4.73912 13.5137C4.9448 13.308 5.22377 13.1924 5.51466 13.1924H16.965C17.6984 13.1925 18.4108 12.9475 18.989 12.4964C19.5672 12.0454 19.9782 11.414 20.1567 10.7027L21.9663 3.58463C22.0074 3.42276 22.011 3.25364 21.9768 3.09017C21.9426 2.92671 21.8715 2.77322 21.7689 2.6414C21.6623 2.5062 21.5253 2.39802 21.369 2.32562C21.2128 2.25321 21.0417 2.21861 20.8696 2.22463H5.25143C5.02515 1.5846 4.60645 1.03023 4.05272 0.637518C3.499 0.244806 2.83736 0.0329748 2.15851 0.0310669H1.12754C0.836657 0.0310669 0.557687 0.14662 0.352001 0.352306C0.146315 0.557992 0.0307617 0.836962 0.0307617 1.12785C0.0307617 1.41873 0.146315 1.6977 0.352001 1.90339C0.557687 2.10907 0.836657 2.22463 1.12754 2.22463H2.15851C2.40906 2.21733 2.65454 2.29606 2.8541 2.44773C3.05365 2.59939 3.19524 2.81483 3.25529 3.05818L3.3211 3.58463L5.21853 10.9989C4.34588 11.0381 3.52456 11.4224 2.93527 12.0673C2.34598 12.7121 2.03699 13.5646 2.07626 14.4373C2.11552 15.3099 2.49984 16.1312 3.14467 16.7205C3.7895 17.3098 4.64201 17.6188 5.51466 17.5795H5.71208C5.5317 18.0765 5.47373 18.6097 5.5431 19.1338C5.61246 19.6579 5.80711 20.1576 6.11056 20.5906C6.41401 21.0235 6.81732 21.377 7.28634 21.621C7.75537 21.865 8.27629 21.9925 8.805 21.9925C9.3337 21.9925 9.85462 21.865 10.3236 21.621C10.7927 21.377 11.196 21.0235 11.4994 20.5906C11.8029 20.1576 11.9975 19.6579 12.0669 19.1338C12.1363 18.6097 12.0783 18.0765 11.8979 17.5795H14.4863C14.3059 18.0765 14.248 18.6097 14.3173 19.1338C14.3867 19.6579 14.5813 20.1576 14.8848 20.5906C15.1882 21.0235 15.5916 21.377 16.0606 21.621C16.5296 21.865 17.0505 21.9925 17.5792 21.9925C18.1079 21.9925 18.6289 21.865 19.0979 21.621C19.5669 21.377 19.9702 21.0235 20.2737 20.5906C20.5771 20.1576 20.7718 19.6579 20.8411 19.1338C20.9105 18.6097 20.8525 18.0765 20.6721 17.5795H20.8696C21.1605 17.5795 21.4394 17.464 21.6451 17.2583C21.8508 17.0526 21.9663 16.7736 21.9663 16.4828C21.9663 16.1919 21.8508 15.9129 21.6451 15.7072C21.4394 15.5015 21.1605 15.386 20.8696 15.386ZM19.4657 4.41818L18.0289 10.1653C17.9689 10.4087 17.8273 10.6241 17.6277 10.7758C17.4282 10.9274 17.1827 11.0062 16.9321 10.9989H7.46692L5.82176 4.41818H19.4657ZM8.805 19.7731C8.58807 19.7731 8.37602 19.7088 8.19566 19.5883C8.01529 19.4677 7.87472 19.2964 7.7917 19.096C7.70869 18.8956 7.68697 18.6751 7.72929 18.4623C7.77161 18.2496 7.87607 18.0542 8.02946 17.9008C8.18284 17.7474 8.37827 17.6429 8.59102 17.6006C8.80378 17.5583 9.02431 17.58 9.22472 17.663C9.42513 17.746 9.59642 17.8866 9.71693 18.067C9.83745 18.2473 9.90177 18.4594 9.90177 18.6763C9.90177 18.9672 9.78622 19.2462 9.58053 19.4519C9.37485 19.6575 9.09588 19.7731 8.805 19.7731ZM17.5792 19.7731C17.3623 19.7731 17.1503 19.7088 16.9699 19.5883C16.7895 19.4677 16.649 19.2964 16.5659 19.096C16.4829 18.8956 16.4612 18.6751 16.5035 18.4623C16.5458 18.2496 16.6503 18.0542 16.8037 17.9008C16.9571 17.7474 17.1525 17.6429 17.3653 17.6006C17.578 17.5583 17.7985 17.58 17.9989 17.663C18.1994 17.746 18.3707 17.8866 18.4912 18.067C18.6117 18.2473 18.676 18.4594 18.676 18.6763C18.676 18.9672 18.5605 19.2462 18.3548 19.4519C18.1491 19.6575 17.8701 19.7731 17.5792 19.7731Z" fill="white"/>
</svg>
